<?xml version="1.0" encoding="UTF-8"?>
<svg id="Livello_1" data-name="Livello 1" xmlns="http://www.w3.org/2000/svg" viewBox="0 0 800 964.1">
  <defs>
    <style>
      .cls-1 {
        fill: #e5e0d6;
      }
    </style>
  </defs>
  <path class="cls-1" d="M749.88,672l-190.73-190.81,189.01-189.09c68.89-68.89,66.76-181.91-6.39-248.07C709.63,14.98,667.16,0,623.83,0h-54.78C563.21,0,558.47,4.74,558.47,10.59v75.06c0,5.85,4.74,10.59,10.59,10.59,2.51,0,4.94-.89,6.85-2.52l32.31-27.42c38.18-32.39,95.12-29.55,129.87,6.87,35.84,37.56,33.17,97.61-3.54,134.32l-224.49,224.58-61.21-61.23c-36.71-36.71-39.38-96.77-3.54-134.32,34.75-36.42,91.69-39.27,129.87-6.87l32.31,27.42c1.91,1.63,4.34,2.52,6.85,2.52,5.85,0,10.59-4.74,10.59-10.58v-75.06c0-5.85-4.74-10.59-10.59-10.59h-54.78c-43.33,0-85.8,14.97-117.93,44.04-18.42,16.65-32.31,36.28-41.72,57.43-8.29-18.61-19.89-36.09-35.15-51.35-32.09-32.09-75.61-50.11-120.99-50.11h-58.11c-5.85,0-10.59,4.74-10.59,10.59v75.06c0,5.85,4.74,10.59,10.59,10.59,2.51,0,4.94-.89,6.85-2.52l32.31-27.42c37.61-31.91,93.41-29.63,128.29,5.25,37,37,37,96.98,0,133.98l-63.17,63.19L63.49,205.54c-37-37-37-96.99,0-133.98,34.88-34.88,90.68-37.16,128.29-5.25l32.31,27.42c1.91,1.62,4.34,2.51,6.85,2.51,5.85,0,10.59-4.73,10.59-10.58V10.59C241.53,4.74,236.79,0,230.94,0h-58.11C127.45,0,83.93,18.03,51.84,50.12c-66.82,66.82-66.82,175.16,0,241.98l189.01,189.09-190.73,190.81c-68.89,68.88-66.76,181.9,6.39,248.06,32.14,29.06,74.6,44.04,117.93,44.04h54.78c5.85,0,10.59-4.74,10.59-10.59v-75.06c0-5.85-4.74-10.59-10.59-10.59-2.51,0-4.94.89-6.85,2.52l-32.31,27.42c-38.18,32.4-95.12,29.55-129.87-6.87-35.84-37.56-33.17-97.61,3.54-134.32l226.22-226.31,62.93,62.95c36.71,36.71,39.38,96.77,3.54,134.32-34.75,36.42-91.69,39.27-129.87,6.87l-32.31-27.42c-1.91-1.62-4.34-2.52-6.85-2.52-5.85,0-10.59,4.74-10.59,10.59v75.06c0,5.85,4.74,10.59,10.59,10.59h54.78c43.33,0,85.8-14.97,117.93-44.04,17.36-15.69,30.58-34.08,39.94-53.84,8.18,17.25,19.21,33.49,33.49,47.76,32.09,32.09,75.61,50.11,120.99,50.11h58.11c5.85,0,10.59-4.74,10.59-10.59v-75.06c0-5.85-4.74-10.59-10.59-10.59-2.51,0-4.94.89-6.85,2.52l-32.31,27.42c-37.61,31.91-93.41,29.63-128.29-5.25-37-37-37-96.98,0-133.98l64.89-64.91,228.18,228.27c37,36.99,37,96.98,0,133.98-34.88,34.87-90.68,37.16-128.29,5.25l-32.31-27.42c-1.91-1.63-4.34-2.52-6.85-2.52-5.85,0-10.59,4.73-10.59,10.58v75.06c0,5.85,4.74,10.59,10.59,10.59h58.11c45.38,0,88.9-18.03,120.99-50.12,66.82-66.82,66.82-175.16,0-241.98ZM433.52,508.65c-14.29,14.29-25.33,30.54-33.51,47.82-8.18-17.27-19.23-33.53-33.52-47.82l-27.45-27.46,25.72-25.73c15.32-15.32,26.96-32.89,35.26-51.58,8.3,18.68,19.9,36.26,35.22,51.58l25.72,25.74-27.45,27.45Z"/>
</svg>