<?xml version="1.0" encoding="UTF-8"?>
<svg id="Livello_1" data-name="Livello 1" xmlns="http://www.w3.org/2000/svg" viewBox="0 0 1300 120.23">
  <defs>
    <style>
      .cls-1 {
        fill: #786050;
      }
    </style>
  </defs>
  <path class="cls-1" d="M49.81,53.03c-26.83-7.07-33.82-13.39-33.82-24.72s11.95-18.72,31.43-18.72c8.24,0,16.34,1.03,24.62,3.43l18.2,9.3-2.57-15.46C72.39,2.07,60.26,0,46.49,0,17.44,0,1.11,12.03,1.11,29.18s11.38,26.74,42.64,34.8c26.61,6.86,35.64,13.23,35.64,25.91s-11.02,20.58-33.65,20.58c-9.16,0-18.55-1.36-27.18-4.13L0,96.59l2.57,15.95c9.16,2.73,23.51,7.36,43.92,7.52,30.86.16,47.59-12.36,47.59-31.37s-12.71-27.61-44.27-35.67Z"/>
  <polygon class="cls-1" points="360.74 3.1 341.44 3.1 344.01 18.68 344.01 101.38 341.44 117.01 360.74 117.01 358.35 101.38 358.35 18.68 360.74 3.1"/>
  <polygon class="cls-1" points="534.78 18.68 534.78 105.85 463.1 3.1 440.3 3.1 442.87 18.68 442.87 101.38 440.3 117.01 457.61 117.01 455.22 101.38 455.22 13.89 527.25 117.01 547.09 117.01 547.09 18.68 549.65 3.1 532.39 3.1 534.78 18.68"/>
  <polygon class="cls-1" points="758.58 3.1 733.79 3.1 729.58 17.85 694.47 100.19 659.19 17.85 654.58 3.1 629.26 3.1 631.83 18.68 631.83 101.38 629.26 117.01 646.13 117.01 643.74 101.38 643.74 13.56 687.3 117.01 698.68 117.01 743 13.72 743 101.38 740.61 117.01 758.58 117.01 756.19 101.38 756.19 18.68 758.58 3.1"/>
  <path class="cls-1" d="M912.97,107.23h-58.04v-38.65c0-6.69,5.8-12.13,12.97-12.13h30.02l14.52,1.73v-13.15l-14.52,1.73h-30.02c-1.59,0-3.14-.27-4.56-.8-3.28-1.15-5.93-3.5-7.35-6.46-.66-1.5-1.06-3.14-1.06-4.87V12.88h58.04l16.16,3.45-2.17-13.19-88.77-.04,2.08,12.57.49,3.05v16.6c0,6.55,3.23,12.4,8.23,16.29-5,3.85-8.23,9.7-8.23,16.25v33.51l-2.57,15.63h89.48l2.21-13.37-16.91,3.59Z"/>
  <polygon class="cls-1" points="1097.67 18.68 1097.67 105.85 1025.99 3.1 1003.24 3.1 1005.8 18.68 1005.8 101.38 1003.24 117.01 1020.5 117.01 1018.11 101.38 1018.11 13.89 1090.14 117.01 1109.98 117.01 1109.98 18.68 1112.55 3.1 1095.28 3.1 1097.67 18.68"/>
  <path class="cls-1" d="M1282.2,3.1l2.39,15.58v61.42c0,20.42-14.17,30.21-38.43,30.21s-38.03-9.8-38.03-30.21V18.68l2.39-15.58h-19.3l2.57,15.58v60.76c0,27.28,18.37,40.79,51.84,40.79s51.8-13.52,51.8-40.79V18.68l2.57-15.58h-17.8Z"/>
  <path class="cls-1" d="M249.17,35.38l18.23-32.29h-19.85l-11.18,28.42c-3.46,8.9-7.46,14.93-12.02,18.08-4.56,3.16-10.5,4.74-17.81,4.74h-19.08V18.68l2.39-15.58h-19.3l2.57,15.58v82.7l-2.57,15.62h19.3l-2.39-15.62v-36.59h25.8c6.9,0,12.25,2.75,16.05,5.97,3.8,3.23,7.08,8.38,9.84,15.47l11.39,30.75h16.86l-12.84-32.1c-2.48-6.06-5.59-11.31-9.32-15.76-3.73-4.45-9.32-8.67-16.78-12.67,4.28-2.19,8.01-4.8,11.18-7.83,3.18-3.03,6.35-7.44,9.53-13.25Z"/>
</svg>