<?xml version="1.0" encoding="UTF-8"?>
<svg id="Livello_1" data-name="Livello 1" xmlns="http://www.w3.org/2000/svg" viewBox="0 0 1000 563.63">
  <defs>
    <style>
      .cls-1 {
        fill: #4d2621;
      }
    </style>
  </defs>
  <g>
    <polygon class="cls-1" points="192.81 327.79 155.84 327.79 149.57 349.79 97.23 472.54 44.62 349.79 37.76 327.79 0 327.79 3.83 351.02 3.83 474.32 0 497.61 25.15 497.61 21.58 474.32 21.58 343.38 86.53 497.61 103.5 497.61 169.57 343.63 169.57 474.32 166.01 497.61 192.81 497.61 189.24 474.32 189.24 351.02 192.81 327.79"/>
    <path class="cls-1" d="M422.99,549.04h-86.54v-57.62c0-9.97,8.65-18.09,19.34-18.09h44.75l21.65,2.57v-19.6l-21.65,2.58h-44.75c-2.38,0-4.69-.4-6.8-1.19-4.88-1.72-8.84-5.21-10.96-9.64-.99-2.24-1.58-4.69-1.58-7.26v-32.41h86.54l24.09,5.15-3.23-19.67-132.34-.07,3.1,18.75.73,4.55v24.75c0,9.77,4.82,18.48,12.28,24.29-7.46,5.74-12.28,14.46-12.28,24.22v49.97l-3.83,23.3h133.4l3.3-19.93-25.21,5.35Z"/>
    <polygon class="cls-1" points="698.35 417.03 698.35 546.98 591.49 393.8 557.56 393.8 561.39 417.03 561.39 540.33 557.56 563.62 583.3 563.62 579.74 540.33 579.74 409.88 687.13 563.62 716.7 563.62 716.7 417.03 720.53 393.8 694.79 393.8 698.35 417.03"/>
    <path class="cls-1" d="M973.47,327.79l3.56,23.23v91.57c0,30.44-21.12,45.04-57.29,45.04s-56.7-14.6-56.7-45.04v-91.57l3.56-23.23h-28.78l3.83,23.23v90.58c0,40.67,27.39,60.82,77.29,60.82s77.23-20.15,77.23-60.82v-90.58l3.83-23.23h-26.53Z"/>
  </g>
  <g>
    <path class="cls-1" d="M164.52,140.46c-40-10.54-50.43-19.96-50.43-36.85s17.82-27.91,46.86-27.91c12.28,0,24.36,1.54,36.7,5.11l27.13,13.86-3.83-23.05c-22.77-7.15-40.86-10.23-61.39-10.23-43.3,0-67.66,17.93-67.66,43.5s16.96,39.87,63.57,51.88c39.67,10.23,53.14,19.72,53.14,38.63s-16.44,30.69-50.17,30.69c-13.66,0-27.66-2.03-40.53-6.16l-27.66-14.54,3.83,23.79c13.66,4.07,35.05,10.97,65.48,11.21,46.01.25,70.96-18.42,70.96-46.77s-18.94-41.16-66.01-53.18Z"/>
    <polygon class="cls-1" points="628.09 .02 599.31 .02 603.14 23.25 603.14 146.55 599.31 169.84 628.09 169.84 624.52 146.55 624.52 23.25 628.09 .02"/>
    <polygon class="cls-1" points="887.56 89.25 887.56 219.21 780.69 66.02 746.7 66.02 750.53 89.25 750.53 212.55 746.7 235.85 772.51 235.85 768.94 212.55 768.94 82.11 876.34 235.85 905.91 235.85 905.91 89.25 909.74 66.02 883.99 66.02 887.56 89.25"/>
    <path class="cls-1" d="M461.75,48.14L488.93,0h-29.59l-16.67,42.38c-5.15,13.27-11.12,22.25-17.91,26.96-6.79,4.71-15.65,7.06-26.56,7.06h-28.45V23.25L373.3.02h-28.78l3.83,23.23v123.3l-3.83,23.29h28.78l-3.56-23.29v-54.55h38.46c10.29,0,18.27,4.1,23.93,8.91,5.66,4.81,10.55,12.49,14.67,23.07l16.99,45.84h25.14l-19.15-47.86c-3.7-9.03-8.34-16.87-13.9-23.5-5.56-6.63-13.9-12.93-25.01-18.88,6.38-3.27,11.94-7.16,16.67-11.68,4.73-4.51,9.47-11.1,14.21-19.75Z"/>
  </g>
</svg>